<svg width="110" height="110" viewBox="0 0 110 110" fill="none" xmlns="http://www.w3.org/2000/svg">
    <path
        d="M55 5V99.4444C55 100.918 54.4147 102.331 53.3728 103.373C52.3309 104.414 50.9179 105 49.4444 105H16.1111C13.1643 105 10.3381 103.829 8.25439 101.746C6.17061 99.6617 5 96.8356 5 93.8889V16.1111C5 13.1643 6.17061 10.3381 8.25439 8.25439C10.3381 6.17061 13.1643 5 16.1111 5H93.8889C96.8356 5 99.6617 6.17061 101.746 8.25439C103.829 10.3381 105 13.1643 105 16.1111V49.4444C105 50.9179 104.414 52.3309 103.373 53.3728C102.331 54.4147 100.918 55 99.4444 55H5"
        fill="white" />
    <path
        d="M55 5V99.4444C55 100.918 54.4147 102.331 53.3728 103.373C52.3309 104.414 50.9179 105 49.4444 105H16.1111C13.1643 105 10.3381 103.829 8.25439 101.746C6.17061 99.6617 5 96.8356 5 93.8889V16.1111C5 13.1643 6.17061 10.3381 8.25439 8.25439C10.3381 6.17061 13.1643 5 16.1111 5H93.8889C96.8356 5 99.6617 6.17061 101.746 8.25439C103.829 10.3381 105 13.1643 105 16.1111V49.4444C105 50.9179 104.414 52.3309 103.373 53.3728C102.331 54.4147 100.918 55 99.4444 55H5"
        stroke="#256BAB" stroke-width="10" stroke-linecap="round" stroke-linejoin="round" />
</svg>
