<svg width="65" height="65" viewBox="0 0 65 65" fill="none" xmlns="http://www.w3.org/2000/svg">
    <path
        d="M33 7V54.2222C33 54.9589 32.7073 55.6656 32.1864 56.1864C31.6655 56.7072 30.9589 57 30.2222 57H13.5556C12.0821 57 10.6691 56.4147 9.62719 55.3728C8.58531 54.3308 8 52.9178 8 51.4444V12.5556C8 11.0821 8.58531 9.66906 9.62719 8.62719C10.6691 7.58531 12.0821 7 13.5556 7H52.4444C53.9178 7 55.3308 7.58531 56.3728 8.62719C57.4147 9.66906 58 11.0821 58 12.5556V29.2222C58 29.9589 57.7072 30.6655 57.1864 31.1864C56.6656 31.7073 55.9589 32 55.2222 32H8"
        fill="white" />
    <path
        d="M33 7V54.2222C33 54.9589 32.7073 55.6656 32.1864 56.1864C31.6655 56.7072 30.9589 57 30.2222 57H13.5556C12.0821 57 10.6691 56.4147 9.62719 55.3728C8.58531 54.3308 8 52.9178 8 51.4444V12.5556C8 11.0821 8.58531 9.66906 9.62719 8.62719C10.6691 7.58531 12.0821 7 13.5556 7H52.4444C53.9178 7 55.3308 7.58531 56.3728 8.62719C57.4147 9.66906 58 11.0821 58 12.5556V29.2222C58 29.9589 57.7072 30.6655 57.1864 31.1864C56.6656 31.7073 55.9589 32 55.2222 32H8"
        stroke="#256BAB" stroke-width="5" stroke-linecap="round" stroke-linejoin="round" />
</svg>
